<?xml version="1.0" encoding="UTF-8"?>
<svg version="1.1" xmlns="http://www.w3.org/2000/svg" width="512" height="512">
<path d="M0 0 C22.35357451 19.59592657 36.12750893 45.11678967 38.79467773 74.91259766 C40.26041745 97.61778279 35.0481147 118.26303188 24 138 C23.44441406 138.99773437 22.88882813 139.99546875 22.31640625 141.0234375 C17.80825744 148.56945157 12.02048102 154.66641818 6 161 C-19.91598323 189.19489382 -32.41113511 220.86254255 -35 259 C-33.96359375 258.97679687 -32.9271875 258.95359375 -31.859375 258.9296875 C-30.48959056 258.91092333 -29.1197983 258.89272382 -27.75 258.875 C-27.06808594 258.85824219 -26.38617188 258.84148437 -25.68359375 258.82421875 C-21.96263462 258.78809293 -19.07758803 258.78706765 -16 261 C-12.89292407 265.66061389 -13.63141535 270.45558512 -13.625 275.9375 C-13.60050781 277.03513672 -13.57601562 278.13277344 -13.55078125 279.26367188 C-13.54691406 280.32005859 -13.54304687 281.37644531 -13.5390625 282.46484375 C-13.53084473 283.430271 -13.52262695 284.39569824 -13.51416016 285.39038086 C-14.13542251 288.72740264 -15.41115563 289.88001808 -18 292 C-20.296537 293.1482685 -21.58313167 293.11561175 -24.1328125 293.09765625 C-24.93847656 293.09443359 -25.74414062 293.09121094 -26.57421875 293.08789062 C-27.41597656 293.07951172 -28.25773438 293.07113281 -29.125 293.0625 C-29.97449219 293.05798828 -30.82398438 293.05347656 -31.69921875 293.04882812 C-33.79950909 293.03702874 -35.8997633 293.01909306 -38 293 C-37.97172119 293.88643188 -37.97172119 293.88643188 -37.94287109 294.79077148 C-37.75779847 304.75723747 -41.1797213 312.67269818 -48 320 C-56.25228089 327.4561785 -65.0936537 328.71844277 -75.87109375 328.3359375 C-85.07333944 327.74922412 -91.19824422 323.79518711 -97.796875 317.5078125 C-104.2315748 310.1832074 -106.18761552 302.5683915 -106 293 C-107.24136719 293.05800781 -108.48273438 293.11601562 -109.76171875 293.17578125 C-111.40360814 293.22269238 -113.04553832 293.26819109 -114.6875 293.3125 C-115.50412109 293.35439453 -116.32074219 293.39628906 -117.16210938 293.43945312 C-121.58664375 293.5290186 -123.40455383 293.4598724 -127.01953125 290.66796875 C-130.50576584 285.97152255 -130.21419625 281.78631134 -130.25 276.1875 C-130.270625 275.39279297 -130.29125 274.59808594 -130.3125 273.77929688 C-130.34561839 268.77427972 -129.82529409 265.31055383 -127 261 C-123.89914429 258.93276286 -123.27068319 258.75502577 -119.76953125 258.8046875 C-118.96708984 258.81113281 -118.16464844 258.81757813 -117.33789062 258.82421875 C-116.50451172 258.84097656 -115.67113281 258.85773438 -114.8125 258.875 C-113.5450293 258.88853516 -113.5450293 258.88853516 -112.25195312 258.90234375 C-110.16784757 258.92589297 -108.08388783 258.96176353 -106 259 C-108.53986963 221.58430854 -120.45279472 190.66437699 -146 163 C-148.3698166 160.36351613 -150.69722521 157.69517588 -153 155 C-153.63679688 154.26523437 -154.27359375 153.53046875 -154.9296875 152.7734375 C-173.09969491 131.06840919 -182.06409571 102.45953416 -179.6875 74.296875 C-177.38480146 51.59487844 -169.1325009 31.84908824 -155 14 C-154.40574219 13.23429687 -153.81148438 12.46859375 -153.19921875 11.6796875 C-148.51026435 5.9723683 -142.83554376 1.48637905 -137 -3 C-136.21882813 -3.6084375 -135.43765625 -4.216875 -134.6328125 -4.84375 C-95.02965712 -34.17942065 -37.49462902 -31.48686184 0 0 Z " fill="#FEE44C" transform="translate(469,184)"/>
<path d="M0 0 C0.81339844 0.67160156 1.62679687 1.34320313 2.46484375 2.03515625 C25.65512038 21.63515309 39.20670955 51.31682551 42.6875 81.12109375 C45.28516035 113.36455281 37.03393898 145.06458121 16.5 170.375 C13.70738675 174.10630677 12.43974291 177.3162507 13 182 C15.71684076 193.26651973 20.63767585 203.08194389 27.5 212.4375 C29 215 29 215 28.875 217.75 C28 220 28 220 26 222 C8.96301679 223.71707815 -8.37541059 219.43585572 -22 209 C-29.39828558 206.53390481 -34.94189952 208.48210211 -42.07592773 211.00146484 C-72.93983625 221.78418279 -106.7704433 218.15213621 -135.91992188 204.14477539 C-164.65414335 189.81414624 -186.7456043 164.16659241 -197.359375 133.9296875 C-207.56395745 103.19149403 -206.15251303 68.99205418 -191.89697266 39.73632812 C-186.92396337 29.93315347 -181.37921325 21.19474128 -174 13 C-173.32839844 12.18660156 -172.65679687 11.37320313 -171.96484375 10.53515625 C-151.52213964 -13.65219272 -121.02545807 -26.81443042 -89.92431641 -29.55004883 C-57.30193523 -31.92759213 -24.48283156 -22.04633789 0 0 Z " fill="#FF6470" transform="translate(208,193)"/>
<path d="M0 0 C17.75024381 14.062969 30.00531098 34.6374191 33.125 57.1875 C35.09400828 82.55352602 29.03554193 106.13863167 12.33203125 125.6953125 C11.60371094 126.51773438 10.87539062 127.34015625 10.125 128.1875 C9.57199219 128.82429687 9.01898438 129.46109375 8.44921875 130.1171875 C-5.67474964 145.32761499 -26.97616515 154.46007927 -47.50390625 155.56640625 C-73.12888858 156.36181792 -95.83266406 148.03362911 -114.6953125 130.44921875 C-125.72820249 119.00111247 -133.97195669 104.68228848 -137.875 89.1875 C-138.17857422 88.0428125 -138.17857422 88.0428125 -138.48828125 86.875 C-143.61528989 63.99528797 -137.86052548 40.97976406 -125.953125 21.203125 C-122.1409171 15.67112406 -117.61254636 10.9317854 -112.875 6.1875 C-112.14410156 5.445 -111.41320312 4.7025 -110.66015625 3.9375 C-80.41599957 -24.89864194 -32.41023965 -24.38306908 0 0 Z " fill="#FFF4E8" transform="translate(180.875,217.8125)"/>
<path d="M0 0 C3.90593058 2.77225805 7.47866181 5.75775606 11 9 C11.63035156 9.53882812 12.26070312 10.07765625 12.91015625 10.6328125 C26.01704926 22.51559933 34.78971585 42.17812645 36.21582031 59.64306641 C37.37902169 83.48869473 31.68976595 105.6018533 15.375 123.6875 C1.52713498 138.48088069 -17.85411226 148.52523671 -38.2734375 149.23828125 C-61.40424614 149.66353578 -81.53033616 145.02918279 -99 129 C-99.75539062 128.33613281 -100.51078125 127.67226562 -101.2890625 126.98828125 C-116.92368796 112.45506411 -124.97281946 91.77814416 -126.125 70.71484375 C-126.64008852 50.91612861 -120.19474532 30.45830639 -106.6875 15.75 C-104.82235723 13.79866647 -102.91878101 11.90010025 -101 10 C-100.20722656 9.1853125 -99.41445312 8.370625 -98.59765625 7.53125 C-72.66150906 -17.67126241 -29.78656239 -18.44314237 0 0 Z " fill="#00B4FF" transform="translate(306,12)"/>
<path d="M0 0 C1.36639366 -0.00430527 1.36639366 -0.00430527 2.76039124 -0.00869751 C4.6826337 -0.01073458 6.60489706 -0.00522973 8.52709961 0.00732422 C11.4592967 0.02336442 14.39011158 0.00747299 17.32226562 -0.01171875 C19.19401344 -0.00973589 21.0657604 -0.00589134 22.9375 0 C23.80954575 -0.00607269 24.68159149 -0.01214539 25.58006287 -0.0184021 C30.64107297 0.03965991 34.15773648 0.58129448 38.53515625 3.3984375 C42.85619429 8.23079838 43.15681395 12.28173999 43.03515625 18.4609375 C43.05835938 19.64526367 43.05835938 19.64526367 43.08203125 20.85351562 C43.05557758 24.79841902 42.79281359 26.95957061 40.7578125 30.42578125 C38.3868737 32.53004152 37.57667441 33.04197591 34.47265625 32.8984375 C30.53515625 32.3984375 30.53515625 32.3984375 28.80078125 31.31640625 C26.84093726 28.34639575 27.2512644 25.71317467 27.34765625 22.2109375 C27.37472656 20.93863281 27.40179688 19.66632813 27.4296875 18.35546875 C27.46449219 17.37964844 27.49929688 16.40382813 27.53515625 15.3984375 C24.56515625 15.3984375 21.59515625 15.3984375 18.53515625 15.3984375 C18.53515625 40.8084375 18.53515625 66.2184375 18.53515625 92.3984375 C32.8355251 92.31934617 32.8355251 92.31934617 47.13574219 92.21826172 C48.93033613 92.21241974 50.72493271 92.20732348 52.51953125 92.203125 C53.44910645 92.19289307 54.37868164 92.18266113 55.33642578 92.17211914 C56.67568115 92.17175659 56.67568115 92.17175659 58.04199219 92.17138672 C58.81476501 92.1669455 59.58753784 92.16250427 60.38372803 92.15792847 C62.87630343 92.43657448 64.42216333 93.05410126 66.53515625 94.3984375 C69.64223218 99.05905139 68.9037409 103.85402262 68.91015625 109.3359375 C68.93464844 110.43357422 68.95914063 111.53121094 68.984375 112.66210938 C68.98824219 113.71849609 68.99210937 114.77488281 68.99609375 115.86328125 C69.00431152 116.8287085 69.0125293 117.79413574 69.02099609 118.78881836 C68.39973374 122.12584014 67.12400062 123.27845558 64.53515625 125.3984375 C62.23861925 126.546706 60.95202458 126.51404925 58.40234375 126.49609375 C57.59667969 126.49287109 56.79101562 126.48964844 55.9609375 126.48632812 C54.69830078 126.47375977 54.69830078 126.47375977 53.41015625 126.4609375 C52.56066406 126.45642578 51.71117187 126.45191406 50.8359375 126.44726562 C48.73564716 126.43546624 46.63539295 126.41753056 44.53515625 126.3984375 C44.55400879 126.98939209 44.57286133 127.58034668 44.59228516 128.18920898 C44.77735778 138.15567497 41.35543495 146.07113568 34.53515625 153.3984375 C26.28287536 160.854616 17.44150255 162.11688027 6.6640625 161.734375 C-2.53818319 161.14766162 -8.66308797 157.19362461 -15.26171875 150.90625 C-21.69641855 143.5816449 -23.65245927 135.966829 -23.46484375 126.3984375 C-24.70621094 126.45644531 -25.94757813 126.51445312 -27.2265625 126.57421875 C-28.86845189 126.62112988 -30.51038207 126.66662859 -32.15234375 126.7109375 C-32.96896484 126.75283203 -33.78558594 126.79472656 -34.62695312 126.83789062 C-39.0514875 126.9274561 -40.86939758 126.8583099 -44.484375 124.06640625 C-47.97060959 119.36996005 -47.67904 115.18474884 -47.71484375 109.5859375 C-47.73546875 108.79123047 -47.75609375 107.99652344 -47.77734375 107.17773438 C-47.81046214 102.17271722 -47.29013784 98.70899133 -44.46484375 94.3984375 C-34.11015352 87.49531068 -5.22880844 93.06136194 3.53515625 93.3984375 C3.53515625 67.6584375 3.53515625 41.9184375 3.53515625 15.3984375 C1.22515625 15.3984375 -1.08484375 15.3984375 -3.46484375 15.3984375 C-3.4184375 16.29046875 -3.37203125 17.1825 -3.32421875 18.1015625 C-3.27007812 19.85726563 -3.27007812 19.85726563 -3.21484375 21.6484375 C-3.1684375 22.80859375 -3.12203125 23.96875 -3.07421875 25.1640625 C-3.46484375 28.3984375 -3.46484375 28.3984375 -5.26171875 30.78515625 C-7.46484375 32.3984375 -7.46484375 32.3984375 -10.96484375 32.9609375 C-14.46484375 32.3984375 -14.46484375 32.3984375 -16.65234375 30.421875 C-19.10390163 26.33242284 -19.05649495 23.13896774 -18.96484375 18.4609375 C-18.9803125 17.67525391 -18.99578125 16.88957031 -19.01171875 16.08007812 C-18.97599874 10.7444009 -18.08246553 7.55498581 -14.46484375 3.3984375 C-9.88605577 -0.26034166 -5.60234053 -0.03892285 0 0 Z " fill="#889DAA" transform="translate(386.46484375,350.6015625)"/>
<path d="M0 0 C25.24934699 1.54587839 47.92022106 18.14643378 64.39697266 36.15136719 C82.93335309 57.52777179 91.32433756 85.74607655 89.77734375 113.74609375 C88.50380571 130.9659353 83.40005829 145.99366749 75 161 C74.16662109 162.49660156 74.16662109 162.49660156 73.31640625 164.0234375 C68.80825744 171.56945157 63.02048102 177.66641818 57 184 C30.96143707 212.32825252 18.86119872 243.76398071 16 282 C6.43 282 -3.14 282 -13 282 C-13 256.59 -13 231.18 -13 205 C-10.03 205 -7.06 205 -4 205 C-3.95101563 205.98742187 -3.90203125 206.97484375 -3.8515625 207.9921875 C-3.77679688 209.27351562 -3.70203125 210.55484375 -3.625 211.875 C-3.55539062 213.15117187 -3.48578125 214.42734375 -3.4140625 215.7421875 C-3.32758894 219.08061699 -3.32758894 219.08061699 -1 221 C4.33207113 221.69649928 4.33207113 221.69649928 8.875 219.5 C10.16053378 216.86805463 10.16053378 216.86805463 10.828125 213.2890625 C11.85858927 209.09298914 13.61474595 205.54082778 15.875 201.875 C16.26574707 201.23393311 16.65649414 200.59286621 17.05908203 199.93237305 C22.36399983 191.50588208 29.00966489 184.17514952 35.859375 176.984375 C56.99415634 154.74133346 67.85309293 127.15501506 67.24609375 96.38671875 C66.31510252 70.42549561 55.84429787 47.49061036 39 28 C38.34386719 27.24074219 37.68773437 26.48148438 37.01171875 25.69921875 C26.72614006 14.70884665 13.28731589 7.65974428 0 1 C0 0.67 0 0.34 0 0 Z " fill="#FED502" transform="translate(418,161)"/>
<path d="M0 0 C26.87277689 -1.57817287 55.37800152 9.13989859 75.56640625 26.80859375 C76.77103516 27.89333984 76.77103516 27.89333984 78 29 C78.81339844 29.67160156 79.62679687 30.34320313 80.46484375 31.03515625 C103.65512038 50.63515309 117.20670955 80.31682551 120.6875 110.12109375 C123.28516035 142.36455281 115.03393898 174.06458121 94.5 199.375 C91.70738675 203.10630677 90.43974291 206.3162507 91 211 C93.71684076 222.26651973 98.63767585 232.08194389 105.5 241.4375 C107 244 107 244 106.875 246.75 C106 249 106 249 104 251 C98.70212773 252.09362753 94.23430472 252.1927612 89 251 C84.77254602 247.34382359 82.44071231 242.92756992 80 238 C79.67563965 237.38012207 79.3512793 236.76024414 79.01708984 236.12158203 C67.04477868 213.16715086 67.04477868 213.16715086 69 203 C70.72078035 199.7986992 72.86934307 196.93838547 75 194 C84.04886088 180.7381731 90.70064712 167.56886877 95 152 C95.391875 150.741875 95.78375 149.48375 96.1875 148.1875 C98.25391986 140.08077593 98.15585526 131.95897928 98.13037109 123.64624023 C98.1250212 121.57072616 98.13033635 119.49542929 98.13671875 117.41992188 C98.15921066 84.79394224 84.03123503 56.13374179 61.15625 33.0859375 C44.58888833 16.98166488 22.66268072 5.45823227 0 1 C0 0.67 0 0.34 0 0 Z " fill="#FF4555" transform="translate(130,164)"/>
<path d="M0 0 C1.36639366 -0.00430527 1.36639366 -0.00430527 2.76039124 -0.00869751 C4.6826337 -0.01073458 6.60489706 -0.00522973 8.52709961 0.00732422 C11.4592967 0.02336442 14.39011158 0.00747299 17.32226562 -0.01171875 C19.19401344 -0.00973589 21.0657604 -0.00589134 22.9375 0 C23.80954575 -0.00607269 24.68159149 -0.01214539 25.58006287 -0.0184021 C30.64107297 0.03965991 34.15773648 0.58129448 38.53515625 3.3984375 C42.85619429 8.23079838 43.15681395 12.28173999 43.03515625 18.4609375 C43.050625 19.25048828 43.06609375 20.04003906 43.08203125 20.85351562 C43.05557758 24.79841902 42.79281359 26.95957061 40.7578125 30.42578125 C38.3868737 32.53004152 37.57667441 33.04197591 34.47265625 32.8984375 C30.53515625 32.3984375 30.53515625 32.3984375 28.80078125 31.31640625 C26.84093726 28.34639575 27.2512644 25.71317467 27.34765625 22.2109375 C27.37472656 20.93863281 27.40179688 19.66632813 27.4296875 18.35546875 C27.46449219 17.37964844 27.49929688 16.40382813 27.53515625 15.3984375 C24.56515625 15.3984375 21.59515625 15.3984375 18.53515625 15.3984375 C18.53515625 40.8084375 18.53515625 66.2184375 18.53515625 92.3984375 C13.58515625 92.3984375 8.63515625 92.3984375 3.53515625 92.3984375 C3.53515625 66.9884375 3.53515625 41.5784375 3.53515625 15.3984375 C1.22515625 15.3984375 -1.08484375 15.3984375 -3.46484375 15.3984375 C-3.4184375 16.29046875 -3.37203125 17.1825 -3.32421875 18.1015625 C-3.288125 19.27203125 -3.25203125 20.4425 -3.21484375 21.6484375 C-3.1684375 22.80859375 -3.12203125 23.96875 -3.07421875 25.1640625 C-3.46484375 28.3984375 -3.46484375 28.3984375 -5.26171875 30.78515625 C-7.46484375 32.3984375 -7.46484375 32.3984375 -10.96484375 32.9609375 C-14.46484375 32.3984375 -14.46484375 32.3984375 -16.65234375 30.421875 C-19.10390163 26.33242284 -19.05649495 23.13896774 -18.96484375 18.4609375 C-18.9803125 17.67525391 -18.99578125 16.88957031 -19.01171875 16.08007812 C-18.97599874 10.7444009 -18.08246553 7.55498581 -14.46484375 3.3984375 C-9.88605577 -0.26034166 -5.60234053 -0.03892285 0 0 Z " fill="#9BAEBB" transform="translate(386.46484375,350.6015625)"/>
<path d="M0 0 C8.35945652 5.03190587 15.5982319 12.17801149 18.015625 21.86328125 C19.70199719 32.82470047 18.00847172 41.63382722 11.6015625 50.703125 C9.55302264 53.28966522 7.41368731 55.3811458 4.8515625 57.453125 C-0.95045923 62.18973124 -4.05013222 68.15804992 -5.5859375 75.453125 C-5.71874834 77.01498048 -5.84345088 78.5775421 -5.9609375 80.140625 C-6.27021957 83.1612799 -6.54155322 84.3831344 -8.2109375 87.015625 C-11.59116761 89.06155375 -13.70982834 89.07607112 -17.5859375 88.453125 C-20.0234375 86.703125 -20.0234375 86.703125 -21.5859375 83.453125 C-23.29702465 71.63427559 -19.04700166 61.79656016 -12.65625 52.0859375 C-9.75748147 48.39957903 -6.32002534 45.54363771 -2.765625 42.5078125 C1.23727733 38.7344673 2.21254169 35.36757273 2.7890625 29.890625 C2.37669624 26.11060099 1.28022148 23.73756481 -0.5859375 20.453125 C-1.0809375 18.968125 -1.0809375 18.968125 -1.5859375 17.453125 C-4.00976827 16.28359084 -4.00976827 16.28359084 -6.5859375 15.453125 C-7.2459375 15.123125 -7.9059375 14.793125 -8.5859375 14.453125 C-13.81434084 13.93199329 -18.22630504 13.81038966 -23.0234375 16.078125 C-27.25471871 19.99980027 -29.50962164 23.42746674 -30.5859375 29.078125 C-31.16285396 32.00215457 -31.59979639 33.47416998 -33.2734375 36.015625 C-36.61216981 38.09105319 -38.7356374 38.07192323 -42.5859375 37.453125 C-45.21404489 35.36411656 -46.33039993 33.79140424 -46.96484375 30.46875 C-47.44592693 21.71613995 -43.98351473 14.72861978 -38.4609375 8.140625 C-28.48517266 -2.36365719 -13.45617402 -6.22402837 0 0 Z " fill="#FFDFB0" transform="translate(141.5859375,228.546875)"/>
<path d="M0 0 C3.5 0.875 3.5 0.875 5.4375 2.5625 C6.84059036 5.61628489 6.83479623 7.52300399 6.5 10.875 C5.20875475 13.17186943 3.96763489 15.06142795 2.375 17.125 C1.93124023 17.7228833 1.48748047 18.3207666 1.03027344 18.93676758 C-0.46097456 20.93129903 -1.97624159 22.9052062 -3.5 24.875 C-4.0352832 25.56706543 -4.57056641 26.25913086 -5.12207031 26.97216797 C-7.41895468 29.93309008 -9.72182641 32.88916899 -12.03466797 35.83764648 C-16.37508844 41.3817868 -20.59000763 47.00697439 -24.75 52.6875 C-28.86255504 58.29630926 -32.97702883 63.90159773 -37.1875 69.4375 C-38.33798828 70.95537109 -38.33798828 70.95537109 -39.51171875 72.50390625 C-41.68910463 75.10051378 -43.39587291 76.62963842 -46.75 77.375 C-53.19329365 76.20349206 -57.50611528 69.84083279 -61.55078125 65.078125 C-63.77068212 62.56905869 -66.11503502 60.22749193 -68.5 57.875 C-82.9441561 43.58473902 -82.9441561 43.58473902 -84 38.4375 C-83.25580827 34.6235174 -81.54803662 33.1941583 -78.5 30.875 C-75.625 30.1875 -75.625 30.1875 -72.5 30.875 C-67.70366312 33.92117239 -64.1190373 38.34949031 -60.4765625 42.640625 C-56.69286171 46.91785198 -52.57313858 50.87562047 -48.5 54.875 C-45.14072231 53.75524077 -44.69085244 53.13897398 -42.70703125 50.359375 C-42.16715576 49.61308838 -41.62728027 48.86680176 -41.07104492 48.09790039 C-40.4907251 47.28184326 -39.91040527 46.46578613 -39.3125 45.625 C-38.05632063 43.88814059 -36.79844279 42.15250861 -35.5390625 40.41796875 C-34.55147949 39.05551025 -34.55147949 39.05551025 -33.54394531 37.66552734 C-30.15622671 33.04039313 -26.67327274 28.4889421 -23.1875 23.9375 C-17.84786441 16.97755689 -17.84786441 16.97755689 -12.59375 9.953125 C-12.17778564 9.38972412 -11.76182129 8.82632324 -11.33325195 8.24584961 C-10.28440401 6.8193002 -9.24150442 5.38838229 -8.19921875 3.95703125 C-5.56230098 0.72604925 -4.2169289 -0.1506046 0 0 Z " fill="#0094FF" transform="translate(299.5,42.125)"/>
<path d="M0 0 C15.84 0 31.68 0 48 0 C46.8610795 10.25028446 44.18148022 15.92457287 36.1875 22.375 C29.95557152 26.60982399 22.78017866 29.98643834 15.09765625 29.56640625 C9.9170524 28.16754674 7.12944936 23.88436629 4.4921875 19.484375 C0.87854017 12.58747095 0 7.92679066 0 0 Z " fill="#9BAEBC" transform="translate(363,477)"/>
<path d="M0 0 C2.97 0 5.94 0 9 0 C9.04898437 0.98742187 9.09796875 1.97484375 9.1484375 2.9921875 C9.22320312 4.27351563 9.29796875 5.55484375 9.375 6.875 C9.44460938 8.15117187 9.51421875 9.42734375 9.5859375 10.7421875 C9.67241106 14.08061699 9.67241106 14.08061699 12 16 C14.32275177 16.40047444 16.65739357 16.7397104 19 17 C18.82984375 17.55945313 18.6596875 18.11890625 18.484375 18.6953125 C17.64837539 21.46122609 16.82420024 24.23054749 16 27 C15.67515625 28.07378906 15.3503125 29.14757812 15.015625 30.25390625 C10.42736656 45.76574919 8.29306633 60.9330125 7 77 C4.69 77 2.38 77 0 77 C0 51.59 0 26.18 0 0 Z " fill="#FDE34D" transform="translate(405,366)"/>
<path d="M0 0 C0.70705078 -0.01224609 1.41410156 -0.02449219 2.14257812 -0.03710938 C5.88090863 -0.04763988 8.84727524 -0.04309389 11.9375 2.1875 C15.04457593 6.84811389 14.30608465 11.64308512 14.3125 17.125 C14.33699219 18.22263672 14.36148437 19.32027344 14.38671875 20.45117188 C14.39251953 22.03575195 14.39251953 22.03575195 14.3984375 23.65234375 C14.40665527 24.617771 14.41487305 25.58319824 14.42333984 26.57788086 C13.80207749 29.91490264 12.52634437 31.06751808 9.9375 33.1875 C7.43252996 34.43998502 5.72896726 34.30124406 2.9296875 34.28515625 C1.94355469 34.28193359 0.95742188 34.27871094 -0.05859375 34.27539062 C-1.09113281 34.26701172 -2.12367188 34.25863281 -3.1875 34.25 C-4.74791016 34.24323242 -4.74791016 34.24323242 -6.33984375 34.23632812 C-8.91411962 34.22451952 -11.48828146 34.20805075 -14.0625 34.1875 C-13.24910156 33.42566406 -12.43570312 32.66382813 -11.59765625 31.87890625 C-7.89896938 27.42767836 -8.36457964 22.66991468 -8.5 17.125 C-8.48356445 15.65450195 -8.48356445 15.65450195 -8.46679688 14.15429688 C-8.51346393 9.57159229 -8.58571862 6.93332883 -11.09765625 3.00390625 C-11.74605469 2.40449219 -12.39445312 1.80507813 -13.0625 1.1875 C-8.71169047 0.12321195 -4.45434516 0.00408281 0 0 Z " fill="#728D9A" transform="translate(441.0625,442.8125)"/>
<path d="M0 0 C4.93731454 1.46290801 4.93731454 1.46290801 6.375 4 C6.87073337 7.89504791 6.95516848 10.09493717 4.8125 13.4375 C1.43282196 15.60396028 -0.68483987 15.56288002 -4.625 15 C-7.0625 13.375 -7.0625 13.375 -8.625 11 C-9.1875 8.0625 -9.1875 8.0625 -8.625 5 C-5.91953265 1.14675862 -4.77773264 0 0 0 Z " fill="#FFDFB0" transform="translate(128.625,331)"/>
<path d="M0 0 C8.57142857 0.85714286 8.57142857 0.85714286 12 3 C11.01 3 10.02 3 9 3 C8.67 3.66 8.34 4.32 8 5 C5.36 3.68 2.72 2.36 0 1 C0 0.67 0 0.34 0 0 Z " fill="#FFD814" transform="translate(418,161)"/>
</svg>
